<svg xmlns="http://www.w3.org/2000/svg" xml:space="preserve" viewBox="0 0 228.9 174.8">
  <path fill="none" stroke="#fff" stroke-miterlimit="10" stroke-width="2.98" d="M174.7 27V13.6H13.6v148h161.1v-75"/>
  <path fill="#fff" d="M44 46.3h5.4v4h.3c1-2.7 3.4-4.4 6.6-4.4 3.2 0 5.5 1.7 6.4 4.4h.2C64 47.7 66.6 46 70 46c4.4 0 7.4 2.8 7.4 8.1v16h-5.6V55c0-2.9-1.8-4.3-4.1-4.3-2.7 0-4.3 1.9-4.3 4.5v14.9H58V54.8c0-2.4-1.6-4-4-4s-4.4 2-4.4 4.9v14.5H44V46.3zm38.2 12C82.2 51 86.6 46 93.5 46c5.9 0 10.9 3.7 10.9 12v1.7H87.7c0 4.1 2.4 6.5 6.1 6.5 2.4 0 4.3-1.1 5-3.1l5.2.6c-1 4.1-4.8 6.9-10.4 6.9-7 0-11.4-4.8-11.4-12.3zM99 56c0-3.2-2.2-5.6-5.4-5.6-3.3 0-5.6 2.6-5.8 5.6H99zm22-5.4h-4.7V63c0 2.3 1.1 2.8 2.5 2.8.7 0 1.3-.1 1.6-.2l.9 4.4c-.6.2-1.7.5-3.3.6-4.2.1-7.5-2.1-7.4-6.6V50.6h-3.4v-4.3h3.4v-5.7h5.6v5.7h4.7v4.3zm3.6 12.8c0-5.4 4.4-6.7 9-7.2 4.2-.4 5.9-.5 5.9-2.1V54c0-2.3-1.4-3.7-4-3.7-2.7 0-4.3 1.4-4.9 3l-5.2-.7c1.2-4.3 5.1-6.6 10.1-6.6 4.5 0 9.7 1.9 9.7 8.2v15.9h-5.4v-3.3h-.2c-1 2-3.3 3.8-7 3.8-4.6 0-8-2.5-8-7.2zm14.9-1.8v-2.8c-.7.6-3.7 1-5.1 1.2-2.5.4-4.4 1.3-4.4 3.4 0 2.1 1.7 3.1 4 3.1 3.4 0 5.5-2.3 5.5-4.9zm19.8-20.2c.4-1.8.2-2.1-.9-2.2l-2.6-.3.3-1 8.1-1.1.2.2-7.2 28.9c-.4 1.5-.4 2.4.5 2.4 1.1 0 3.1-2.7 4.1-4.8l1.1.6c-1.4 3.4-4.2 6.5-7.3 6.5-2.4 0-3-1.8-2.3-4.4l6-24.8zm21.2 6.1c1.2 0 2.5.4 3.3.9l.2-.6h3.8l-4.8 18c-.4 1.4-.4 2.5.5 2.5 1.3 0 3.2-3.2 4-4.8l1.1.6c-1.5 3.4-4 6.5-7.5 6.5-2.4 0-2.9-1.8-2-5l1.5-5.1h-.1c-2.6 4.6-6.8 10.2-11.6 10.2-3.1 0-4.3-2.7-4.3-5.4 0-5.9 5.2-17.8 15.9-17.8zm-9.4 20.8c2.2 0 4.9-3 7.4-6.8 2.4-3.6 4-8.1 4.8-11.4-.7-.6-1.7-1-2.7-1-7.1 0-11.5 11.1-11.5 16.1 0 1.7.5 3.1 2 3.1zm26.1-26.9c.4-1.8.2-2.1-.9-2.2l-2.6-.3.3-1 8.1-1.1.2.2-5 19.8h.1c3.5-6.2 7.9-9.3 11.3-9.3 3.3 0 4.8 2.3 4.8 5.7 0 2-.7 6-3 10-2.2 4-6 7.5-11.3 7.5-2.6 0-4.9-1.3-5.7-3.1l-1.4 2.6h-1.6l6.7-28.8zm2.6 27.7c6.6 0 9.3-12.2 9.3-15.5 0-2.6-.8-3.7-2.4-3.7-2.8 0-6.2 3.9-8.2 7.5-1.4 2.6-2.4 5.7-2.4 7.9s1.4 3.8 3.7 3.8zM43.1 101.4c2.5-.2 2.5-.2 2.5-1.8V85.4c0-1.6-.1-1.6-2.5-1.8v-.8h7.8v.8c-2.4.2-2.5.2-2.5 1.8v6.2h9.8v-6.2c0-1.6-.1-1.6-2.5-1.8v-.8h7.8v.8c-2.5.2-2.5.3-2.5 1.8v14.2c0 1.6.1 1.6 2.5 1.8v.8h-7.8v-.8c2.5-.2 2.5-.2 2.5-1.8v-6.9h-9.8v6.9c0 1.6.1 1.6 2.5 1.8v.8h-7.8v-.8zm25.3-6.2c2.2-.7 4.9-1.4 5.6-2.1v-1.2c0-2.2-1.3-2.8-2.4-2.8-1.1 0-2.3.7-2.9 2.7-.1.5-.3.8-.9.8-.5 0-1.6-.4-1.6-1.3 0-1.5 2.5-3.2 5.7-3.2 4.2 0 4.6 2.1 4.6 3.7v6.8c0 1.8.5 2.3 1 2.4.4.1 1 .1 1.4 0l.2.7c-1.1.5-2.3.8-3.3.8s-1.4-.6-1.8-1.7c-.9.6-2.5 1.7-4.2 1.7-2.6 0-4-1.9-4-4 0-1.2.6-2.6 2.6-3.3zm2.8 5.9c1.1 0 2.8-.6 2.8-2.9v-3.9c-.6.4-2.1.9-3.2 1.3-1.6.6-2.2 1.3-2.2 2.6.1 1.6.9 2.9 2.6 2.9zm8.8.3c2-.1 2.1-.2 2.1-1.6V91c0-1-.2-1.1-.9-1.3l-1.1-.1v-.7l4.3-.7.3 2.2c1.8-1.6 2.7-2.2 3.7-2.2 1.1 0 1.5.8 1.5 1.4 0 .9-.6 1.6-1.3 1.6-.1 0-.4 0-.6-.1-.8-.4-1.3-.6-1.7-.6-.6 0-1.6.7-1.6 2.9v6.6c0 1.4.2 1.5 2.7 1.6v.8H80v-1zm10-12.9h6.3v.8l-1.3.1c-.5.1-.6.3-.4.8.5 1.5 1.1 3.1 1.7 4.7l1.7 4.7 1.9-5.2c.6-1.8 1.2-3.4 1.4-4.3.1-.4 0-.7-.4-.8l-1.4-.1v-.8h5.3v.8c-1.3.1-1.6.2-2 1.2-.4.9-1.2 2.7-2 4.9l-2.5 6.8h-2l-2.2-6c-.7-1.9-1.3-3.8-2.1-5.6-.4-1-.7-1.1-2-1.3v-.7zm18.1 6.7c2.2-.7 4.9-1.4 5.6-2.1v-1.2c0-2.2-1.3-2.8-2.4-2.8-1.1 0-2.3.7-2.9 2.7-.1.5-.3.8-.9.8-.5 0-1.6-.4-1.6-1.3 0-1.5 2.5-3.2 5.7-3.2 4.2 0 4.6 2.1 4.6 3.7v6.8c0 1.8.5 2.3 1 2.4.4.1 1 .1 1.4 0l.2.7c-1.1.5-2.3.8-3.3.8s-1.4-.6-1.8-1.7c-.9.6-2.5 1.7-4.2 1.7-2.6 0-4-1.9-4-4 0-1.2.6-2.6 2.6-3.3zm2.8 5.9c1.1 0 2.8-.6 2.8-2.9v-3.9c-.6.4-2.1.9-3.2 1.3-1.6.6-2.2 1.3-2.2 2.6 0 1.6.8 2.9 2.6 2.9zm8.7.3c2-.1 2.1-.2 2.1-1.6V91c0-1-.2-1.1-.9-1.3l-1.1-.1v-.7l4.3-.7.3 2.2c1.8-1.6 2.7-2.2 3.7-2.2 1.1 0 1.5.8 1.5 1.4 0 .9-.6 1.6-1.3 1.6-.1 0-.4 0-.6-.1-.8-.4-1.3-.6-1.7-.6-.6 0-1.6.7-1.6 2.9v6.6c0 1.4.2 1.5 2.7 1.6v.8h-7.4v-1zm13.3-11.3c1.2-1.2 2.9-1.9 5.2-1.9 1.3 0 2.3.3 3.1.7v-4.6c0-1.1-.2-1.2-.9-1.3l-1.1-.1v-.7l4.4-.7.2.2v18.2c0 1.4.1 1.5 2.1 1.6v.8h-4.5l-.2-.2v-1.4c-1.5 1.2-2.8 1.9-4.3 1.9-3.7 0-5.9-2.8-5.9-6.9 0-2.5.7-4.4 1.9-5.6zm4.9 10.9c1.5 0 2.7-.6 3.2-2 .2-.5.2-1 .2-1.6v-4.9c0-.8 0-1.1-.3-1.6-.5-1.1-1.6-1.8-2.9-1.8-2.9 0-4.2 2.5-4.2 6.2.1 3.2 1.4 5.7 4 5.7zm-94.7 32.4c2.5-.2 2.5-.2 2.5-1.8v-14.2c0-1.6-.1-1.6-2.5-1.8v-.8h8.1c2.2 0 3.9.3 5 1 1.1.8 1.7 1.9 1.7 3.4 0 2.2-1.5 3.8-4.2 4.3v.1c2.7.4 5.1 1.8 5.1 5.1 0 3.9-2.7 5.4-7 5.4h-8.7v-.7zm7.2-10.1c2.9 0 4.7-1.1 4.7-3.8 0-2.9-2.2-3.6-4.3-3.6-2.2 0-2.3.2-2.3 1.4v6.1h1.9zm.8 9.9c2.4 0 4.7-.9 4.7-4.3 0-3-1.9-4.7-5.4-4.7h-2v6.8c0 1.8.4 2.2 2.7 2.2zm16.9-13c5.1 0 5.7 4 5.7 5.6 0 .9-.5 1.1-1.1 1.1h-8.1c-.1 2.9.6 6.3 4.1 6.3 2.2 0 3.3-1.3 4.1-3l.8.4c-.8 2.2-2.4 3.9-5.5 3.9-4.6 0-6.5-2.7-6.5-7.1.1-4.1 2.1-7.2 6.5-7.2zm1.8 5.6c.8 0 1-.4 1-.9 0-1.1-.3-3.8-2.9-3.8-2.9 0-3.3 3.5-3.3 4.6h5.2zm5.7 7.6c2-.1 2.1-.2 2.1-1.6V123c0-1-.2-1.1-.9-1.3l-1.1-.1v-.7l4.3-.7.3 2.2c1.8-1.6 2.7-2.2 3.7-2.2 1.1 0 1.5.8 1.5 1.4 0 .9-.6 1.6-1.3 1.6-.1 0-.4 0-.6-.1-.8-.4-1.3-.6-1.7-.6-.6 0-1.6.7-1.6 2.9v6.6c0 1.4.2 1.5 2.7 1.6v.8h-7.4v-1zm10.5 0c2-.1 2.1-.2 2.1-1.6v-15.5c0-1.1-.2-1.2-.9-1.3l-1.1-.1v-.7l4.4-.7.2.2v18.2c0 1.4.1 1.5 2.1 1.6v.8H86v-.9zm8.2 0c2-.1 2.1-.2 2.1-1.6V123c0-1-.2-1.1-.9-1.3l-1.1-.1v-.7l4.4-.7.2.2v11.5c0 1.4.1 1.5 2.1 1.6v.8h-6.8v-.9zm3.4-19.2c1 0 1.7.7 1.7 1.7s-.7 1.7-1.7 1.7-1.7-.7-1.7-1.7.7-1.7 1.7-1.7zm4.7 19.2c2-.1 2.1-.2 2.1-1.6V123c0-1-.2-1.1-.9-1.3l-1.1-.1v-.7l4.2-.7.4 2.1c1.7-1.1 3-2.1 5.1-2.1 2.6 0 4.1 1.6 4.1 4.5v7.2c0 1.4.1 1.5 2.1 1.6v.8h-6.8v-.8c2-.1 2.1-.2 2.1-1.6v-6.6c0-2.4-1-3.5-2.9-3.5-1.5 0-2.7.9-3.3 2-.2.4-.3.8-.3 1.5v6.6c0 1.4.1 1.5 2.1 1.6v.8h-6.8v-.9z"/>
</svg>