<svg xmlns="http://www.w3.org/2000/svg" xml:space="preserve" fill-rule="evenodd" stroke-linejoin="round" stroke-miterlimit="2" clip-rule="evenodd" viewBox="0 0 574 369">
  <path fill="none" d="M0 0h573.721v368.782H0z"/>
  <path fill-rule="nonzero" d="M405.368 143.865c0-5.568-3.609-8.35-10.826-8.35-2.269 0-4.485.256-6.65.772 1.237 9.434 4.95 14.151 11.135 14.151 1.752 0 3.248-.657 4.485-1.972s1.856-2.849 1.856-4.6m4.408-2.32c0 3.402-.902 6.185-2.707 8.351-1.96 2.32-4.589 3.48-7.887 3.48-8.97 0-15.749-4.745-20.337-14.229-2.475 2.011-5.31 6.753-8.507 14.228h-4.794c1.804-8.712 5.44-15.543 10.903-20.492a49.56 49.56 0 0 1-1.855-13.532V39.163c0-11.084-.748-17.244-2.243-18.48-.825-.67-1.856-1.007-3.093-1.007-1.342 0-3.043.414-5.104 1.238l-1.314-2.707 21.11-8.66h3.48v117.538c1.96-.464 4.071-.696 6.341-.696 4.794 0 8.661 1.34 11.6 4.021 2.937 2.68 4.407 6.391 4.407 11.135M12.491 122.2h18.12V74.46c0-10.383 6.55-15.959 14.495-15.959 7.666 0 13.171 5.158 13.171 13.103v50.594h17.701V73.277c0-8.711 5.366-14.775 14.147-14.775 7.457 0 13.45 4.322 13.45 13.939v49.758h18.19V69.652c0-17.282-10.733-26.62-24.74-26.62-10.942 0-20.698 5.714-24.88 16.934-3.345-11.08-9.965-16.934-20-16.934-9.269 0-18.05 5.017-22.092 16.097l-.558-14.843H12.491v77.913Zm162.884 1.601c17.354 0 29.48-8.293 33.243-20.906l-16.656-3.415c-2.44 6.62-8.433 10.105-16.378 10.105-11.638 0-19.513-7.387-20-21.255h54.219v-5.715c0-27.318-16.586-39.304-35.612-39.304-22.3 0-36.657 16.446-36.657 40.419 0 24.392 14.356 40.071 37.841 40.071Zm-19.722-47.807c.837-10.383 7.527-18.467 18.607-18.467 10.802 0 16.865 7.317 17.912 18.467h-36.519Zm105.67-31.708H246.27V25.749h-18.12v18.537h-11.08v14.216h11.08v43.278c0 13.798 8.293 21.464 23.207 21.464 3.833 0 8.154-.488 12.126-1.673l-2.857-14.007c-1.743.418-4.948.906-6.621.906-5.505 0-7.735-2.579-7.735-8.223V58.502h15.052V44.286Zm39.949 79.515c12.126 0 19.513-5.644 22.928-12.334h.697v10.732h17.353V70.141c0-20.768-17.144-26.83-31.78-26.83-15.61 0-28.432 6.62-33.031 20.349l16.795 3.414c1.88-5.156 7.247-9.826 16.307-9.826 8.85 0 13.589 4.46 13.589 12.056v.348c0 5.367-5.714 5.576-19.234 7.04-15.053 1.602-29.688 6.063-29.688 23.624 0 15.331 11.22 23.485 26.064 23.485Zm4.67-13.45c-7.666 0-13.172-3.483-13.172-10.244 0-7.108 6.133-10.104 14.287-11.22 4.669-.628 14.774-1.882 17.213-3.833v9.2c0 8.641-7.178 16.098-18.328 16.098ZM21.149 175.485h22.456v-13.83c0-2.471-.155-4.1-.463-4.883-.238-.594-.737-1.106-1.498-1.533a6.553 6.553 0 0 0-3.243-.856h-1.71v-1.319h20.673v1.32h-1.71a6.79 6.79 0 0 0-3.245.819c-.76.38-1.277.957-1.55 1.729-.274.772-.41 2.346-.41 4.723v31.19c0 2.447.154 4.062.463 4.847.238.594.725 1.105 1.461 1.532 1.046.57 2.14.856 3.28.856h1.711v1.319H36.69v-1.32h1.711c1.972 0 3.41-.581 4.313-1.746.594-.76.891-2.59.891-5.489v-14.72H21.15v14.72c0 2.448.154 4.063.463 4.848.238.594.737 1.105 1.497 1.532a6.556 6.556 0 0 0 3.244.856H28.1v1.319H7.39v-1.32h1.711c1.996 0 3.446-.581 4.349-1.746.57-.76.855-2.59.855-5.489v-31.19c0-2.47-.154-4.098-.463-4.882-.238-.594-.725-1.106-1.462-1.533a6.75 6.75 0 0 0-3.279-.856H7.39v-1.319H28.1v1.32h-1.747a6.79 6.79 0 0 0-3.244.819 3.091 3.091 0 0 0-1.532 1.729c-.286.772-.428 2.346-.428 4.723v13.83Zm58.494 21.208c-3.35 2.59-5.454 4.088-6.309 4.492a9.64 9.64 0 0 1-4.099.891c-2.258 0-4.117-.772-5.579-2.317-1.46-1.545-2.192-3.577-2.192-6.095 0-1.592.357-2.97 1.07-4.135.974-1.616 2.667-3.137 5.08-4.563 2.411-1.425 6.421-3.16 12.03-5.204v-1.283c0-3.255-.518-5.489-1.552-6.7-1.033-1.212-2.536-1.819-4.509-1.819-1.497 0-2.685.405-3.564 1.212-.903.808-1.355 1.735-1.355 2.78l.072 2.068c0 1.093-.279 1.936-.838 2.53-.558.595-1.289.891-2.192.891-.879 0-1.598-.309-2.157-.927-.558-.617-.837-1.46-.837-2.53 0-2.043 1.045-3.92 3.137-5.632 2.091-1.71 5.025-2.567 8.804-2.567 2.9 0 5.275.488 7.13 1.463 1.401.736 2.434 1.889 3.1 3.457.427 1.022.641 3.113.641 6.273v11.086c0 3.113.06 5.02.18 5.721.117.701.313 1.17.587 1.408.273.237.588.356.944.356.38 0 .713-.084.998-.25.5-.308 1.462-1.175 2.888-2.601v1.995c-2.662 3.565-5.205 5.347-7.628 5.347-1.165 0-2.092-.403-2.78-1.212-.69-.808-1.046-2.186-1.07-4.135Zm0-2.317v-12.439c-3.588 1.425-5.905 2.435-6.95 3.03-1.878 1.045-3.22 2.138-4.029 3.279-.807 1.14-1.21 2.388-1.21 3.743 0 1.71.51 3.13 1.531 4.26 1.022 1.128 2.198 1.692 3.53 1.692 1.805 0 4.181-1.188 7.128-3.565Zm23.457-26.591v7.344c2.731-4.895 5.535-7.344 8.411-7.344 1.307 0 2.388.399 3.243 1.195.856.796 1.284 1.717 1.284 2.762 0 .927-.309 1.712-.927 2.353-.618.642-1.355.963-2.21.963-.832 0-1.765-.41-2.798-1.23-1.034-.82-1.8-1.23-2.299-1.23-.428 0-.89.238-1.39.713-1.07.974-2.175 2.578-3.315 4.812v15.648c0 1.806.225 3.172.677 4.1.31.64.855 1.175 1.64 1.603.784.428 1.912.642 3.386.642v1.283H92.084v-1.283c1.664 0 2.9-.262 3.707-.785.595-.38 1.01-.986 1.248-1.817.12-.405.178-1.557.178-3.458v-12.654c0-3.802-.077-6.065-.23-6.79-.156-.725-.44-1.254-.857-1.587-.416-.332-.933-.498-1.55-.498-.737 0-1.569.178-2.496.534l-.356-1.283 9.874-3.993h1.497Zm13.082.963h15.362v1.32h-.998c-.926 0-1.633.225-2.12.677-.488.45-.73 1.057-.73 1.817 0 .832.248 1.818.747 2.96l7.593 18.035 7.628-18.713c.546-1.332.82-2.34.82-3.03 0-.333-.096-.606-.286-.82a1.965 1.965 0 0 0-.998-.731c-.404-.131-1.224-.196-2.459-.196v-1.319h10.657v1.32c-1.235.094-2.09.344-2.566.748-.832.712-1.58 1.9-2.246 3.564l-11.584 28.016h-1.462l-11.655-27.552c-.523-1.283-1.022-2.205-1.497-2.763-.476-.558-1.082-1.027-1.818-1.407-.404-.215-1.2-.416-2.388-.607v-1.319Zm56.676 27.945c-3.35 2.59-5.454 4.088-6.309 4.492a9.64 9.64 0 0 1-4.099.891c-2.258 0-4.117-.772-5.579-2.317-1.46-1.545-2.192-3.577-2.192-6.095 0-1.592.357-2.97 1.07-4.135.974-1.616 2.667-3.137 5.08-4.563 2.411-1.425 6.421-3.16 12.03-5.204v-1.283c0-3.255-.518-5.489-1.552-6.7-1.033-1.212-2.536-1.819-4.509-1.819-1.497 0-2.685.405-3.564 1.212-.903.808-1.355 1.735-1.355 2.78l.072 2.068c0 1.093-.28 1.936-.838 2.53-.558.595-1.289.891-2.192.891-.879 0-1.598-.309-2.157-.927-.558-.617-.837-1.46-.837-2.53 0-2.043 1.045-3.92 3.136-5.632 2.092-1.71 5.026-2.567 8.805-2.567 2.9 0 5.275.488 7.13 1.463 1.401.736 2.434 1.889 3.1 3.457.427 1.022.641 3.113.641 6.273v11.086c0 3.113.06 5.02.178 5.721.12.701.315 1.17.59 1.408.272.237.587.356.943.356.38 0 .713-.084.998-.25.5-.308 1.462-1.175 2.887-2.601v1.995c-2.66 3.565-5.204 5.347-7.628 5.347-1.164 0-2.09-.403-2.78-1.212-.689-.808-1.045-2.186-1.069-4.135Zm0-2.317v-12.439c-3.588 1.425-5.905 2.435-6.95 3.03-1.878 1.045-3.22 2.138-4.029 3.279-.808 1.14-1.212 2.388-1.212 3.743 0 1.71.511 3.13 1.533 4.26 1.022 1.128 2.198 1.692 3.53 1.692 1.805 0 4.181-1.188 7.128-3.565Zm23.456-26.591v7.344c2.733-4.895 5.537-7.344 8.413-7.344 1.307 0 2.388.399 3.243 1.195.856.796 1.283 1.717 1.283 2.762 0 .927-.31 1.712-.926 2.353-.618.642-1.355.963-2.21.963-.832 0-1.765-.41-2.798-1.23-1.034-.82-1.8-1.23-2.3-1.23-.427 0-.891.238-1.39.713-1.07.974-2.174 2.578-3.315 4.812v15.648c0 1.806.226 3.172.678 4.1.309.64.855 1.175 1.639 1.603.785.428 1.913.642 3.387.642v1.283h-16.719v-1.283c1.664 0 2.9-.262 3.707-.785.594-.38 1.01-.986 1.248-1.817.12-.405.178-1.557.178-3.458v-12.654c0-3.802-.077-6.065-.232-6.79-.154-.725-.439-1.254-.855-1.587-.416-.332-.933-.498-1.55-.498-.737 0-1.569.178-2.496.534l-.356-1.283 9.874-3.993h1.497Zm37.821 29.942c-1.592 1.664-3.15 2.858-4.67 3.582-1.521.725-3.16 1.087-4.92 1.087-3.563 0-6.676-1.49-9.337-4.472-2.662-2.983-3.993-6.815-3.993-11.496s1.474-8.965 4.42-12.85c2.947-3.885 6.737-5.828 11.37-5.828 2.876 0 5.252.915 7.13 2.744v-6.023c0-3.73-.09-6.024-.268-6.88-.178-.855-.457-1.437-.837-1.746-.38-.308-.856-.463-1.426-.463-.618 0-1.438.19-2.46.57l-.463-1.247 9.73-3.992h1.605v37.747c0 3.825.089 6.16.267 7.004.179.843.464 1.432.856 1.765.392.332.849.498 1.372.498.642 0 1.497-.202 2.567-.605l.392 1.246-9.696 4.028h-1.64v-4.67Zm0-2.495v-16.824c-.143-1.616-.571-3.09-1.283-4.42-.713-1.33-1.658-2.334-2.834-3.012-1.176-.677-2.323-1.016-3.44-1.016-2.091 0-3.956.94-5.596 2.816-2.163 2.471-3.244 6.083-3.244 10.836 0 4.8 1.046 8.478 3.137 11.032 2.09 2.555 4.42 3.832 6.986 3.832 2.163 0 4.254-1.082 6.274-3.244Zm-194.273 60.38c3.351.714 5.858 1.854 7.521 3.422 2.305 2.187 3.458 4.86 3.458 8.02 0 2.4-.76 4.7-2.282 6.898-1.52 2.198-3.606 3.802-6.255 4.811-2.65 1.01-6.695 1.516-12.137 1.516H7.354v-1.319h1.818c2.02 0 3.47-.641 4.349-1.925.546-.831.82-2.602.82-5.311v-31.225c0-2.994-.345-4.883-1.034-5.667-.927-1.045-2.305-1.568-4.135-1.568H7.354v-1.32h20.888c3.897 0 7.022.286 9.375.856 3.564.856 6.285 2.37 8.162 4.545 1.877 2.174 2.816 4.675 2.816 7.503 0 2.424-.737 4.593-2.21 6.505-1.473 1.913-3.647 3.333-6.523 4.26Zm-18.678-1.924c.88.166 1.884.291 3.012.374 1.129.083 2.371.124 3.725.124 3.47 0 6.078-.373 7.824-1.122 1.747-.749 3.084-1.896 4.01-3.44a9.652 9.652 0 0 0 1.39-5.06c0-2.83-1.152-5.24-3.457-7.237-2.305-1.996-5.668-2.995-10.087-2.995-2.377 0-4.515.262-6.417.785v18.571Zm0 23.097c2.757.642 5.478.963 8.163.963 4.301 0 7.58-.969 9.838-2.906 2.257-1.935 3.386-4.33 3.386-7.181 0-1.878-.51-3.684-1.533-5.419-1.02-1.735-2.685-3.1-4.99-4.099-2.305-.997-5.156-1.497-8.554-1.497a85.92 85.92 0 0 0-3.779.071c-1.045.048-1.889.131-2.531.25v19.818Zm41.421-16.859c-.024 4.847 1.153 8.649 3.53 11.406 2.375 2.757 5.167 4.134 8.375 4.134 2.14 0 4-.588 5.58-1.763 1.58-1.177 2.904-3.191 3.973-6.042l1.105.712c-.499 3.256-1.948 6.22-4.348 8.893-2.4 2.674-5.407 4.01-9.019 4.01-3.92 0-7.277-1.526-10.069-4.58-2.792-3.053-4.188-7.158-4.188-12.315 0-5.584 1.431-9.938 4.295-13.063 2.863-3.125 6.457-4.687 10.782-4.687 3.66 0 6.666 1.205 9.018 3.617 2.353 2.412 3.53 5.638 3.53 9.678H62.604Zm0-2.068h15.113c-.118-2.091-.368-3.565-.748-4.42-.594-1.33-1.479-2.376-2.656-3.137-1.176-.76-2.406-1.14-3.689-1.14-1.972 0-3.737.767-5.293 2.299-1.556 1.533-2.465 3.665-2.727 6.398Zm36.466-11.192v7.342c2.733-4.895 5.537-7.342 8.412-7.342 1.307 0 2.39.398 3.244 1.194.856.796 1.283 1.717 1.283 2.763 0 .926-.309 1.71-.926 2.351-.618.643-1.355.963-2.21.963-.832 0-1.765-.41-2.799-1.23-1.033-.819-1.8-1.229-2.299-1.229-.427 0-.89.237-1.39.713-1.069.974-2.174 2.578-3.315 4.812v15.647c0 1.806.226 3.173.678 4.1.308.642.855 1.176 1.64 1.604.783.428 1.912.641 3.385.641v1.284H88.057v-1.284c1.664 0 2.9-.26 3.707-.784.594-.38 1.01-.986 1.248-1.818.12-.404.178-1.556.178-3.458v-12.653c0-3.802-.077-6.066-.232-6.79-.154-.724-.439-1.254-.855-1.586-.416-.333-.933-.5-1.55-.5-.737 0-1.569.178-2.496.536l-.356-1.284 9.873-3.992h1.497Zm25.987-17.074V272.9c0 2.043.148 3.398.445 4.064a3.16 3.16 0 0 0 1.373 1.514c.618.345 1.77.517 3.457.517v1.284H114.33v-1.284c1.497 0 2.52-.154 3.065-.463.547-.31.975-.82 1.284-1.532.308-.714.463-2.08.463-4.1v-29.656c0-3.683-.083-5.947-.25-6.79-.166-.844-.433-1.42-.802-1.73-.368-.308-.837-.463-1.408-.463-.617 0-1.402.19-2.352.57l-.606-1.247 9.731-3.992h1.604Zm17.362 0c.997 0 1.846.351 2.547 1.051.701.701 1.052 1.55 1.052 2.55a3.53 3.53 0 0 1-1.052 2.566c-.7.712-1.55 1.07-2.548 1.07s-1.854-.358-2.567-1.07c-.713-.713-1.069-1.569-1.069-2.566 0-1 .35-1.849 1.051-2.55.701-.7 1.563-1.051 2.585-1.051Zm2.957 17.074V272.9c0 2.043.15 3.405.446 4.081.297.678.736 1.183 1.318 1.516.583.332 1.646.498 3.191.498v1.284H134.47v-1.284c1.592 0 2.661-.154 3.208-.463.546-.31.98-.82 1.301-1.532.321-.714.481-2.08.481-4.1v-12.582c0-3.541-.107-5.834-.32-6.88-.167-.76-.428-1.29-.785-1.586-.356-.296-.844-.446-1.46-.446-.667 0-1.475.178-2.425.536l-.499-1.284 9.838-3.992h1.568Zm18.537 6.914c3.826-4.609 7.473-6.914 10.943-6.914 1.782 0 3.315.446 4.598 1.336 1.283.892 2.305 2.36 3.065 4.403.523 1.425.785 3.611.785 6.558V272.9c0 2.068.166 3.47.5 4.207a2.925 2.925 0 0 0 1.264 1.39c.582.332 1.657.498 3.226.498v1.284h-16.147v-1.284h.677c1.521 0 2.584-.232 3.19-.695.606-.463 1.028-1.146 1.266-2.049.095-.356.142-1.473.142-3.35v-13.368c0-2.97-.386-5.126-1.158-6.469-.773-1.343-2.074-2.014-3.903-2.014-2.828 0-5.644 1.545-8.448 4.634V272.9c0 2.21.131 3.576.392 4.1.333.688.79 1.193 1.372 1.514.583.321 1.765.481 3.547.481v1.284h-16.147v-1.284h.713c1.663 0 2.786-.421 3.368-1.265.583-.844.874-2.453.874-4.83v-12.119c0-3.92-.09-6.31-.268-7.164-.178-.856-.45-1.438-.82-1.747-.368-.31-.86-.464-1.479-.464-.665 0-1.46.178-2.388.536l-.535-1.284 9.838-3.992h1.533v6.915ZM39.862 334.493c3.351.712 5.858 1.853 7.521 3.421 2.305 2.186 3.458 4.86 3.458 8.02 0 2.4-.76 4.7-2.282 6.898-1.52 2.197-3.606 3.802-6.255 4.812-2.65 1.01-6.695 1.514-12.137 1.514H7.354v-1.319h1.818c2.02 0 3.47-.641 4.349-1.924.546-.832.82-2.602.82-5.311v-31.225c0-2.994-.345-4.883-1.034-5.667-.927-1.046-2.305-1.568-4.135-1.568H7.354v-1.319h20.888c3.897 0 7.022.285 9.375.855 3.564.855 6.285 2.37 8.162 4.545 1.877 2.174 2.816 4.675 2.816 7.503 0 2.423-.737 4.592-2.21 6.505-1.473 1.913-3.647 3.333-6.523 4.26Zm-18.678-1.926c.88.167 1.884.292 3.012.375 1.129.084 2.371.125 3.725.125 3.47 0 6.078-.374 7.824-1.123 1.747-.748 3.084-1.895 4.01-3.44a9.656 9.656 0 0 0 1.39-5.062c0-2.827-1.152-5.238-3.457-7.235-2.305-1.996-5.668-2.994-10.087-2.994-2.377 0-4.515.261-6.417.784v18.57Zm0 23.099a35.96 35.96 0 0 0 8.163.961c4.301 0 7.58-.967 9.838-2.904 2.257-1.937 3.386-4.331 3.386-7.182 0-1.878-.51-3.684-1.533-5.418-1.02-1.735-2.685-3.102-4.99-4.1-2.305-.998-5.156-1.496-8.554-1.496-1.474 0-2.733.023-3.779.07-1.045.048-1.889.131-2.531.25v19.819Zm54.431-1.212c-3.35 2.59-5.453 4.087-6.309 4.491a9.651 9.651 0 0 1-4.099.89c-2.257 0-4.117-.771-5.578-2.316-1.462-1.544-2.192-3.576-2.192-6.095 0-1.592.356-2.971 1.07-4.135.973-1.616 2.666-3.137 5.078-4.563 2.412-1.425 6.422-3.16 12.03-5.204v-1.283c0-3.256-.516-5.489-1.55-6.701-1.034-1.212-2.537-1.818-4.509-1.818-1.497 0-2.685.404-3.565 1.212-.903.808-1.354 1.735-1.354 2.78l.071 2.067c0 1.094-.279 1.937-.837 2.531-.559.594-1.29.892-2.193.892-.879 0-1.598-.31-2.156-.927-.558-.618-.838-1.462-.838-2.53 0-2.045 1.046-3.922 3.137-5.633 2.091-1.71 5.026-2.566 8.804-2.566 2.9 0 5.276.487 7.13 1.461 1.401.737 2.435 1.89 3.1 3.458.428 1.021.642 3.112.642 6.273v11.086c0 3.112.06 5.02.178 5.72.12.702.315 1.171.588 1.408.273.238.588.357.945.357.38 0 .713-.083.998-.25.5-.309 1.461-1.176 2.887-2.602v1.997c-2.66 3.563-5.204 5.346-7.628 5.346-1.164 0-2.09-.404-2.78-1.212-.689-.807-1.046-2.186-1.07-4.134Zm0-2.317v-12.44c-3.588 1.426-5.905 2.436-6.95 3.029-1.878 1.046-3.22 2.14-4.028 3.28-.808 1.14-1.212 2.388-1.212 3.742 0 1.712.511 3.131 1.533 4.26 1.022 1.128 2.198 1.693 3.53 1.693 1.805 0 4.181-1.189 7.127-3.564Zm35.005-26.591v11.12h-1.176c-.903-3.492-2.062-5.869-3.475-7.128-1.414-1.26-3.214-1.89-5.4-1.89-1.664 0-3.007.44-4.028 1.32-1.022.879-1.533 1.853-1.533 2.923 0 1.33.38 2.471 1.14 3.421.737.974 2.234 2.008 4.492 3.102l5.204 2.53c4.824 2.352 7.236 5.454 7.236 9.304 0 2.97-1.123 5.364-3.369 7.182-2.245 1.818-4.758 2.727-7.539 2.727-1.996 0-4.277-.357-6.843-1.07-.785-.238-1.426-.356-1.925-.356-.547 0-.974.309-1.283.927h-1.177v-11.656h1.177c.665 3.327 1.936 5.834 3.814 7.52 1.877 1.688 3.98 2.531 6.31 2.531 1.638 0 2.975-.48 4.01-1.443 1.032-.963 1.55-2.121 1.55-3.475 0-1.64-.577-3.018-1.73-4.135-1.152-1.116-3.45-2.531-6.897-4.241-3.445-1.712-5.703-3.256-6.772-4.635-1.07-1.354-1.604-3.065-1.604-5.133 0-2.684.921-4.93 2.762-6.736 1.842-1.806 4.224-2.709 7.147-2.709 1.283 0 2.84.273 4.67.82 1.211.356 2.02.534 2.423.534.38 0 .677-.083.891-.25.214-.166.464-.534.75-1.104h1.175Zm12.798 13.26c-.024 4.848 1.153 8.65 3.53 11.406 2.375 2.756 5.168 4.135 8.376 4.135 2.138 0 3.998-.588 5.578-1.765 1.58-1.176 2.905-3.19 3.974-6.041l1.105.712c-.499 3.256-1.948 6.22-4.348 8.894-2.4 2.673-5.406 4.01-9.018 4.01-3.92 0-7.278-1.527-10.07-4.58-2.792-3.054-4.188-7.16-4.188-12.316 0-5.585 1.431-9.939 4.295-13.064 2.863-3.124 6.458-4.687 10.782-4.687 3.66 0 6.666 1.206 9.018 3.618 2.353 2.412 3.53 5.638 3.53 9.678h-22.564Zm0-2.068h15.114c-.119-2.09-.369-3.564-.749-4.42-.594-1.33-1.479-2.376-2.656-3.136-1.176-.761-2.406-1.141-3.689-1.141-1.972 0-3.736.766-5.293 2.3-1.556 1.531-2.465 3.665-2.727 6.397Zm38.142-28.266v43.308c0 2.044.148 3.399.445 4.064a3.16 3.16 0 0 0 1.373 1.514c.617.345 1.77.517 3.457.517v1.283h-16.004v-1.283c1.497 0 2.52-.154 3.065-.463.547-.309.974-.82 1.283-1.533.31-.713.464-2.079.464-4.1v-29.656c0-3.683-.083-5.946-.25-6.79-.166-.842-.434-1.419-.802-1.728-.368-.309-.837-.463-1.408-.463-.618 0-1.402.19-2.352.57l-.606-1.248 9.731-3.992h1.604Zm292.17-204.01V75.323c-17.104 8.235-26.764 11.561-26.764 24.388 0 6.493 4.91 11.877 12.194 11.877 3.801 0 9.343-3.325 14.57-7.126m-42.759 0c0-18.688 16.312-21.855 42.758-33.098V58.695c0-6.177-3.959-10.927-12.352-10.927-4.592 0-11.086 3.008-11.086 9.185 0 2.533.476 3.484.476 5.86 0 3.958-2.059 8.234-8.236 8.234-5.7 0-8.393-3.484-8.393-8.235 0-10.927 13.462-18.37 29.773-18.37 10.611 0 25.022 1.901 25.022 17.103v45.451c0 5.385 2.85 6.493 6.017 6.493 2.217 0 4.91-2.059 6.968-5.702l1.742.951c-3.326 7.285-9.185 12.985-17.103 12.985-9.502 0-12.828-5.226-12.828-12.985-8.076 6.651-14.728 12.985-24.863 12.985-9.344 0-17.895-4.592-17.895-17.26m135.825-19.77c0-18.214-9.344-29.774-21.381-29.774-6.97 0-11.564 3.798-16.471 8.393v44.821c4.59 5.545 11.245 8.87 17.42 8.87 10.61 0 20.432-12.037 20.432-32.31m-52.9 27.242V26.25c0-10.452-3.644-11.56-11.562-8.867v-1.9l26.61-9.029V58.56c6.65-7.285 12.827-13.777 23.914-13.777 18.69 0 31.044 13.304 31.044 34.843 0 22.808-17.741 42.131-40.704 42.131-11.406 0-20.75-3.644-29.302-9.82m34.72 16.879c2.423 0 4.458.838 6.109 2.513 1.65 1.675 2.474 3.7 2.474 6.07 0 2.371-.838 4.395-2.513 6.071-1.675 1.674-3.7 2.513-6.07 2.513-2.371 0-4.396-.839-6.07-2.513-1.676-1.676-2.513-3.7-2.513-6.07 0-2.425.837-4.46 2.513-6.109 1.674-1.65 3.699-2.475 6.07-2.475"/>
</svg>
