<?xml version="1.0" encoding="UTF-8" standalone="no"?>
<!DOCTYPE svg PUBLIC "-//W3C//DTD SVG 1.1//EN" "http://www.w3.org/Graphics/SVG/1.1/DTD/svg11.dtd">
<svg width="100%" height="100%" viewBox="0 0 663 515" version="1.1" xmlns="http://www.w3.org/2000/svg" xmlns:xlink="http://www.w3.org/1999/xlink" xml:space="preserve" xmlns:serif="http://www.serif.com/" style="fill-rule:evenodd;clip-rule:evenodd;stroke-linejoin:round;stroke-miterlimit:2;">
    <g transform="matrix(1,0,0,1,-831.384,-568.292)">
        <g id="Ebene-1" serif:id="Ebene 1">
        </g>
        <g id="Regular" transform="matrix(0.938039,0,0,0.936246,831.384,568.292)">
            <rect x="0" y="0" width="705.962" height="550" style="fill:none;"/>
            <g id="Livello-1" serif:id="Livello 1" transform="matrix(1.06605,0,0,1.0681,-18.1486,-18.2682)">
                <g transform="matrix(1,0,0,1,0,-0.652)">
                    <path d="M561.112,265.692L561.112,525.326L24.609,525.326L24.609,25.326L561.112,25.326L561.112,63.078L551.308,63.078L551.308,35.13L34.413,35.13L34.413,515.522L551.308,515.522L551.308,265.692L561.112,265.692Z"/>
                </g>
                <g transform="matrix(1,0,0,1.02966,-9,-17.4253)">
                    <path d="M129.121,216.324L147.24,216.324L147.24,169.961C147.24,159.877 153.791,154.462 161.736,154.462C169.402,154.462 174.907,159.471 174.907,167.187L174.907,216.324L192.608,216.324L192.608,168.811C192.608,160.351 197.974,154.462 206.755,154.462C214.212,154.462 220.205,158.659 220.205,167.999L220.205,216.324L238.394,216.324L238.394,165.291C238.394,148.506 227.662,139.437 213.654,139.437C202.713,139.437 192.957,144.987 188.775,155.884C185.43,145.122 178.81,139.437 168.774,139.437C159.506,139.437 150.725,144.31 146.683,155.071L146.125,140.655L129.121,140.655L129.121,216.324Z"/>
                    <path d="M292.005,217.88C309.358,217.88 321.484,209.826 325.247,197.576L308.591,194.259C306.152,200.689 300.159,204.073 292.214,204.073C280.576,204.073 272.701,196.899 272.214,183.43L326.432,183.43L326.432,177.88C326.432,151.349 309.846,139.708 290.821,139.708C268.52,139.708 254.164,155.681 254.164,178.963C254.164,202.652 268.52,217.88 292.005,217.88ZM272.283,171.45C273.12,161.366 279.81,153.515 290.89,153.515C301.692,153.515 307.755,160.621 308.801,171.45L272.283,171.45Z"/>
                    <path d="M377.952,140.655L362.9,140.655L362.9,122.652L344.78,122.652L344.78,140.655L333.7,140.655L333.7,154.462L344.78,154.462L344.78,196.493C344.78,209.894 353.073,217.339 367.987,217.339C371.82,217.339 376.141,216.865 380.113,215.714L377.256,202.11C375.513,202.516 372.308,202.99 370.635,202.99C365.13,202.99 362.9,200.486 362.9,195.004L362.9,154.462L377.952,154.462L377.952,140.655Z"/>
                    <path d="M417.901,217.88C430.027,217.88 437.414,212.398 440.829,205.901L441.526,205.901L441.526,216.324L458.879,216.324L458.879,165.765C458.879,145.596 441.735,139.708 427.1,139.708C411.49,139.708 398.667,146.137 394.068,159.471L410.863,162.787C412.744,157.779 418.11,153.244 427.17,153.244C436.021,153.244 440.759,157.576 440.759,164.953L440.759,165.291C440.759,170.503 435.045,170.706 421.525,172.127C406.472,173.684 391.837,178.016 391.837,195.071C391.837,209.961 403.057,217.88 417.901,217.88ZM422.571,204.818C414.905,204.818 409.399,201.434 409.399,194.868C409.399,187.965 415.532,185.055 423.686,183.972C428.355,183.362 438.46,182.144 440.899,180.249L440.899,189.183C440.899,197.576 433.721,204.818 422.571,204.818Z"/>
                    <path d="M139.567,265.076L164.699,265.076L164.699,250.043C164.699,247.357 164.526,245.588 164.181,244.736C163.915,244.09 163.356,243.535 162.505,243.07C161.362,242.45 160.152,242.14 158.875,242.14L156.96,242.14L156.96,240.706L180.098,240.706L180.098,242.14L178.183,242.14C176.906,242.14 175.696,242.437 174.553,243.031C173.702,243.444 173.123,244.071 172.817,244.91C172.511,245.749 172.359,247.461 172.359,250.043L172.359,283.944C172.359,286.604 172.531,288.36 172.877,289.213C173.143,289.858 173.688,290.414 174.513,290.879C175.683,291.499 176.906,291.808 178.183,291.808L180.098,291.808L180.098,293.242L156.96,293.242L156.96,291.808L158.875,291.808C161.082,291.808 162.691,291.176 163.702,289.91C164.367,289.084 164.699,287.095 164.699,283.944L164.699,267.943L139.567,267.943L139.567,283.944C139.567,286.604 139.74,288.36 140.086,289.213C140.352,289.858 140.91,290.414 141.761,290.879C142.905,291.499 144.115,291.808 145.391,291.808L147.346,291.808L147.346,293.242L124.169,293.242L124.169,291.808L126.084,291.808C128.318,291.808 129.94,291.176 130.95,289.91C131.589,289.084 131.908,287.095 131.908,283.944L131.908,250.043C131.908,247.357 131.735,245.588 131.389,244.736C131.123,244.09 130.578,243.535 129.754,243.07C128.583,242.45 127.36,242.14 126.084,242.14L124.169,242.14L124.169,240.706L147.346,240.706L147.346,242.14L145.391,242.14C144.115,242.14 142.905,242.437 141.761,243.031C140.937,243.444 140.365,244.071 140.046,244.91C139.727,245.749 139.567,247.461 139.567,250.043L139.567,265.076Z"/>
                    <path d="M205.032,288.128C201.282,290.943 198.928,292.57 197.971,293.01C196.535,293.655 195.006,293.978 193.383,293.978C190.857,293.978 188.776,293.139 187.14,291.46C185.505,289.781 184.687,287.573 184.687,284.835C184.687,283.104 185.086,281.606 185.884,280.341C186.974,278.584 188.869,276.931 191.568,275.381C194.268,273.832 198.756,271.946 205.032,269.725L205.032,268.33C205.032,264.792 204.454,262.364 203.297,261.047C202.14,259.729 200.458,259.071 198.25,259.071C196.575,259.071 195.245,259.51 194.261,260.388C193.25,261.266 192.745,262.273 192.745,263.41L192.825,265.657C192.825,266.845 192.512,267.762 191.887,268.408C191.262,269.053 190.445,269.376 189.434,269.376C188.45,269.376 187.646,269.04 187.021,268.369C186.396,267.697 186.083,266.78 186.083,265.618C186.083,263.397 187.253,261.356 189.594,259.497C191.934,257.637 195.218,256.707 199.447,256.707C202.692,256.707 205.351,257.237 207.425,258.296C208.995,259.096 210.151,260.349 210.896,262.054C211.375,263.164 211.614,265.437 211.614,268.873L211.614,280.922C211.614,284.305 211.681,286.378 211.814,287.14C211.947,287.902 212.166,288.412 212.472,288.67C212.778,288.929 213.13,289.058 213.529,289.058C213.955,289.058 214.327,288.967 214.646,288.787C215.204,288.451 216.282,287.508 217.877,285.958L217.877,288.128C214.899,292.002 212.053,293.939 209.34,293.939C208.037,293.939 207,293.5 206.229,292.622C205.457,291.744 205.059,290.246 205.032,288.128ZM205.032,285.61L205.032,272.088C201.016,273.638 198.423,274.736 197.253,275.381C195.152,276.518 193.649,277.706 192.745,278.946C191.841,280.186 191.389,281.542 191.389,283.014C191.389,284.873 191.961,286.417 193.104,287.644C194.248,288.87 195.564,289.484 197.053,289.484C199.075,289.484 201.734,288.192 205.032,285.61Z"/>
                    <path d="M231.283,256.707L231.283,264.688C234.341,259.368 237.479,256.707 240.697,256.707C242.16,256.707 243.37,257.14 244.327,258.005C245.285,258.87 245.764,259.871 245.764,261.008C245.764,262.015 245.418,262.867 244.726,263.565C244.035,264.262 243.21,264.611 242.253,264.611C241.322,264.611 240.278,264.165 239.122,263.274C237.965,262.383 237.107,261.938 236.548,261.938C236.07,261.938 235.551,262.196 234.993,262.712C233.796,263.771 232.559,265.515 231.283,267.943L231.283,284.951C231.283,286.914 231.535,288.399 232.041,289.406C232.386,290.104 232.998,290.685 233.876,291.15C234.753,291.615 236.017,291.847 237.665,291.847L237.665,293.242L218.956,293.242L218.956,291.847C220.818,291.847 222.201,291.563 223.105,290.995C223.77,290.582 224.235,289.923 224.501,289.019C224.634,288.58 224.7,287.327 224.7,285.261L224.7,271.507C224.7,267.375 224.614,264.914 224.441,264.127C224.268,263.339 223.949,262.764 223.484,262.403C223.018,262.041 222.44,261.86 221.748,261.86C220.924,261.86 219.993,262.054 218.956,262.441L218.557,261.047L229.607,256.707L231.283,256.707Z"/>
                    <path d="M245.925,257.753L263.118,257.753L263.118,259.187L262.001,259.187C260.964,259.187 260.173,259.432 259.628,259.923C259.083,260.414 258.81,261.072 258.81,261.899C258.81,262.803 259.089,263.875 259.648,265.115L268.145,284.719L276.682,264.378C277.293,262.932 277.599,261.834 277.599,261.085C277.599,260.724 277.493,260.427 277.28,260.194C276.988,259.807 276.615,259.542 276.163,259.4C275.711,259.258 274.793,259.187 273.411,259.187L273.411,257.753L285.338,257.753L285.338,259.187C283.955,259.29 282.998,259.561 282.466,260C281.535,260.775 280.698,262.067 279.953,263.875L266.988,294.327L265.352,294.327L252.308,264.378C251.722,262.984 251.164,261.983 250.632,261.376C250.1,260.769 249.422,260.259 248.598,259.845C248.145,259.613 247.255,259.393 245.925,259.187L245.925,257.753Z"/>
                    <path d="M309.355,288.128C305.605,290.943 303.252,292.57 302.294,293.01C300.858,293.655 299.329,293.978 297.707,293.978C295.18,293.978 293.099,293.139 291.463,291.46C289.828,289.781 289.01,287.573 289.01,284.835C289.01,283.104 289.409,281.606 290.207,280.341C291.297,278.584 293.192,276.931 295.891,275.381C298.591,273.832 303.079,271.946 309.355,269.725L309.355,268.33C309.355,264.792 308.777,262.364 307.62,261.047C306.463,259.729 304.781,259.071 302.573,259.071C300.898,259.071 299.568,259.51 298.584,260.388C297.574,261.266 297.068,262.273 297.068,263.41L297.148,265.657C297.148,266.845 296.836,267.762 296.211,268.408C295.586,269.053 294.768,269.376 293.757,269.376C292.773,269.376 291.969,269.04 291.344,268.369C290.719,267.697 290.406,266.78 290.406,265.618C290.406,263.397 291.576,261.356 293.917,259.497C296.257,257.637 299.542,256.707 303.77,256.707C307.015,256.707 309.674,257.237 311.749,258.296C313.318,259.096 314.475,260.349 315.219,262.054C315.698,263.164 315.937,265.437 315.937,268.873L315.937,280.922C315.937,284.305 316.004,286.378 316.137,287.14C316.27,287.902 316.489,288.412 316.795,288.67C317.101,288.929 317.453,289.058 317.852,289.058C318.278,289.058 318.65,288.967 318.969,288.787C319.528,288.451 320.605,287.508 322.2,285.958L322.2,288.128C319.222,292.002 316.376,293.939 313.663,293.939C312.36,293.939 311.323,293.5 310.552,292.622C309.781,291.744 309.382,290.246 309.355,288.128ZM309.355,285.61L309.355,272.088C305.339,273.638 302.746,274.736 301.576,275.381C299.475,276.518 297.973,277.706 297.068,278.946C296.164,280.186 295.712,281.542 295.712,283.014C295.712,284.873 296.284,286.417 297.427,287.644C298.571,288.87 299.887,289.484 301.377,289.484C303.398,289.484 306.057,288.192 309.355,285.61Z"/>
                    <path d="M335.606,256.707L335.606,264.688C338.664,259.368 341.802,256.707 345.02,256.707C346.483,256.707 347.693,257.14 348.651,258.005C349.608,258.87 350.087,259.871 350.087,261.008C350.087,262.015 349.741,262.867 349.05,263.565C348.358,264.262 347.534,264.611 346.576,264.611C345.645,264.611 344.602,264.165 343.445,263.274C342.288,262.383 341.43,261.938 340.872,261.938C340.393,261.938 339.874,262.196 339.316,262.712C338.119,263.771 336.882,265.515 335.606,267.943L335.606,284.951C335.606,286.914 335.858,288.399 336.364,289.406C336.71,290.104 337.321,290.685 338.199,291.15C339.076,291.615 340.34,291.847 341.989,291.847L341.989,293.242L323.279,293.242L323.279,291.847C325.141,291.847 326.524,291.563 327.428,290.995C328.093,290.582 328.558,289.923 328.824,289.019C328.957,288.58 329.024,287.327 329.024,285.261L329.024,271.507C329.024,267.375 328.937,264.914 328.764,264.127C328.591,263.339 328.272,262.764 327.807,262.403C327.341,262.041 326.763,261.86 326.072,261.86C325.247,261.86 324.316,262.054 323.279,262.441L322.88,261.047L333.93,256.707L335.606,256.707Z"/>
                    <path d="M377.933,289.251C376.151,291.059 374.409,292.357 372.707,293.145C371.005,293.933 369.17,294.327 367.202,294.327C363.213,294.327 359.729,292.706 356.75,289.465C353.772,286.223 352.282,282.058 352.282,276.97C352.282,271.882 353.931,267.226 357.229,263.003C360.527,258.78 364.769,256.669 369.955,256.669C373.173,256.669 375.832,257.663 377.933,259.652L377.933,253.104C377.933,249.049 377.833,246.557 377.634,245.627C377.434,244.697 377.122,244.064 376.696,243.728C376.271,243.393 375.739,243.225 375.101,243.225C374.409,243.225 373.492,243.431 372.348,243.845L371.83,242.489L382.72,238.149L384.515,238.149L384.515,279.178C384.515,283.337 384.615,285.874 384.815,286.791C385.014,287.708 385.333,288.347 385.772,288.709C386.211,289.071 386.723,289.251 387.308,289.251C388.026,289.251 388.983,289.032 390.18,288.593L390.619,289.949L379.768,294.327L377.933,294.327L377.933,289.251ZM377.933,286.539L377.933,268.253C377.774,266.496 377.295,264.895 376.497,263.449C375.699,262.002 374.642,260.911 373.326,260.175C372.009,259.439 370.726,259.071 369.476,259.071C367.136,259.071 365.048,260.091 363.213,262.131C360.793,264.818 359.583,268.743 359.583,273.909C359.583,279.127 360.753,283.124 363.093,285.9C365.434,288.677 368.04,290.065 370.912,290.065C373.332,290.065 375.673,288.89 377.933,286.539Z"/>
                    <path d="M160.511,343.039C164.26,343.814 167.066,345.054 168.928,346.759C171.508,349.135 172.797,352.041 172.797,355.476C172.797,358.085 171.946,360.584 170.244,362.973C168.542,365.362 166.208,367.105 163.243,368.203C160.278,369.301 155.75,369.85 149.66,369.85L124.129,369.85L124.129,368.416L126.163,368.416C128.424,368.416 130.046,367.719 131.03,366.324C131.642,365.42 131.948,363.496 131.948,360.551L131.948,326.612C131.948,323.358 131.562,321.305 130.791,320.452C129.754,319.316 128.211,318.748 126.163,318.748L124.129,318.748L124.129,317.314L147.506,317.314C151.867,317.314 155.364,317.624 157.997,318.244C161.987,319.174 165.032,320.82 167.133,323.184C169.234,325.547 170.284,328.265 170.284,331.339C170.284,333.974 169.46,336.33 167.811,338.41C166.162,340.489 163.729,342.032 160.511,343.039ZM139.607,340.947C140.591,341.128 141.715,341.264 142.978,341.354C144.241,341.445 145.631,341.49 147.147,341.49C151.03,341.49 153.948,341.083 155.903,340.269C157.858,339.456 159.354,338.209 160.391,336.531C161.428,334.852 161.947,333.018 161.947,331.029C161.947,327.955 160.657,325.334 158.077,323.164C155.497,320.995 151.734,319.91 146.788,319.91C144.128,319.91 141.735,320.194 139.607,320.762L139.607,340.947ZM139.607,366.053C142.692,366.75 145.737,367.099 148.742,367.099C153.556,367.099 157.226,366.046 159.753,363.941C162.279,361.836 163.542,359.234 163.542,356.135C163.542,354.094 162.971,352.131 161.827,350.246C160.683,348.36 158.822,346.875 156.242,345.79C153.662,344.705 150.471,344.163 146.668,344.163C145.019,344.163 143.61,344.189 142.439,344.24C141.269,344.292 140.325,344.383 139.607,344.512L139.607,366.053Z"/>
                    <path d="M185.964,347.727C185.937,352.996 187.254,357.129 189.913,360.125C192.573,363.121 195.697,364.619 199.288,364.619C201.681,364.619 203.762,363.98 205.531,362.702C207.299,361.423 208.782,359.234 209.979,356.135L211.216,356.909C210.657,360.448 209.035,363.67 206.349,366.576C203.663,369.482 200.298,370.934 196.256,370.934C191.868,370.934 188.111,369.275 184.986,365.956C181.862,362.637 180.299,358.175 180.299,352.57C180.299,346.5 181.901,341.767 185.106,338.371C188.311,334.974 192.333,333.276 197.173,333.276C201.269,333.276 204.633,334.587 207.266,337.209C209.899,339.83 211.216,343.336 211.216,347.727L185.964,347.727ZM185.964,345.48L202.878,345.48C202.745,343.207 202.466,341.606 202.04,340.676C201.375,339.23 200.385,338.093 199.068,337.267C197.752,336.44 196.376,336.027 194.94,336.027C192.732,336.027 190.757,336.86 189.016,338.526C187.274,340.192 186.256,342.51 185.964,345.48Z"/>
                    <path d="M226.775,333.315L226.775,341.296C229.834,335.975 232.972,333.315 236.19,333.315C237.653,333.315 238.863,333.748 239.82,334.613C240.778,335.478 241.256,336.479 241.256,337.615C241.256,338.623 240.911,339.475 240.219,340.172C239.528,340.87 238.703,341.219 237.746,341.219C236.815,341.219 235.771,340.773 234.614,339.882C233.457,338.991 232.6,338.545 232.041,338.545C231.563,338.545 231.044,338.804 230.485,339.32C229.289,340.379 228.052,342.123 226.775,344.55L226.775,361.559C226.775,363.522 227.028,365.007 227.533,366.014C227.879,366.711 228.491,367.293 229.368,367.757C230.246,368.222 231.509,368.455 233.158,368.455L233.158,369.85L214.449,369.85L214.449,368.455C216.31,368.455 217.693,368.171 218.598,367.603C219.262,367.189 219.728,366.531 219.994,365.627C220.127,365.188 220.193,363.935 220.193,361.869L220.193,348.115C220.193,343.982 220.107,341.522 219.934,340.734C219.761,339.946 219.442,339.372 218.977,339.01C218.511,338.649 217.933,338.468 217.241,338.468C216.417,338.468 215.486,338.661 214.449,339.049L214.05,337.654L225.1,333.315L226.775,333.315Z"/>
                    <path d="M255.859,314.757L255.859,361.83C255.859,364.051 256.025,365.523 256.358,366.247C256.69,366.97 257.202,367.519 257.893,367.893C258.585,368.268 259.875,368.455 261.763,368.455L261.763,369.85L243.851,369.85L243.851,368.455C245.527,368.455 246.67,368.287 247.282,367.951C247.894,367.615 248.372,367.06 248.718,366.285C249.064,365.51 249.237,364.025 249.237,361.83L249.237,329.596C249.237,325.592 249.144,323.132 248.958,322.215C248.771,321.298 248.472,320.672 248.06,320.336C247.648,320 247.122,319.832 246.484,319.832C245.793,319.832 244.915,320.039 243.851,320.452L243.173,319.096L254.064,314.757L255.859,314.757Z"/>
                    <path d="M275.288,314.757C276.405,314.757 277.356,315.138 278.141,315.9C278.925,316.662 279.317,317.585 279.317,318.67C279.317,319.755 278.925,320.685 278.141,321.46C277.356,322.234 276.405,322.622 275.288,322.622C274.171,322.622 273.214,322.234 272.416,321.46C271.618,320.685 271.219,319.755 271.219,318.67C271.219,317.585 271.612,316.662 272.396,315.9C273.181,315.138 274.145,314.757 275.288,314.757ZM278.599,333.315L278.599,361.83C278.599,364.051 278.766,365.53 279.098,366.266C279.431,367.002 279.923,367.551 280.574,367.912C281.226,368.274 282.416,368.455 284.144,368.455L284.144,369.85L266.392,369.85L266.392,368.455C268.174,368.455 269.371,368.287 269.983,367.951C270.594,367.615 271.08,367.06 271.439,366.285C271.798,365.51 271.977,364.025 271.977,361.83L271.977,348.154C271.977,344.305 271.858,341.813 271.618,340.676C271.432,339.85 271.14,339.275 270.741,338.952C270.342,338.629 269.797,338.468 269.105,338.468C268.36,338.468 267.456,338.661 266.392,339.049L265.834,337.654L276.844,333.315L278.599,333.315Z"/>
                    <path d="M299.345,340.831C303.627,335.82 307.709,333.315 311.592,333.315C313.587,333.315 315.302,333.799 316.738,334.768C318.174,335.736 319.318,337.331 320.169,339.553C320.754,341.102 321.047,343.479 321.047,346.681L321.047,361.83C321.047,364.077 321.233,365.601 321.605,366.401C321.898,367.047 322.37,367.551 323.021,367.912C323.673,368.274 324.876,368.455 326.632,368.455L326.632,369.85L308.56,369.85L308.56,368.455L309.318,368.455C311.02,368.455 312.211,368.203 312.889,367.699C313.567,367.196 314.039,366.453 314.305,365.472C314.411,365.084 314.464,363.87 314.464,361.83L314.464,347.301C314.464,344.073 314.032,341.729 313.168,340.269C312.304,338.81 310.848,338.08 308.8,338.08C305.635,338.08 302.484,339.759 299.345,343.117L299.345,361.83C299.345,364.232 299.492,365.717 299.784,366.285C300.156,367.034 300.668,367.583 301.32,367.932C301.972,368.281 303.295,368.455 305.289,368.455L305.289,369.85L287.218,369.85L287.218,368.455L288.016,368.455C289.878,368.455 291.134,367.996 291.786,367.079C292.437,366.163 292.763,364.413 292.763,361.83L292.763,348.657C292.763,344.395 292.663,341.8 292.464,340.87C292.264,339.94 291.959,339.307 291.546,338.971C291.134,338.636 290.582,338.468 289.891,338.468C289.146,338.468 288.255,338.661 287.218,339.049L286.62,337.654L297.63,333.315L299.345,333.315L299.345,340.831Z"/>
                    <path d="M160.511,419.647C164.26,420.422 167.066,421.662 168.928,423.366C171.508,425.743 172.797,428.648 172.797,432.084C172.797,434.692 171.946,437.191 170.244,439.58C168.542,441.97 166.208,443.713 163.243,444.811C160.278,445.908 155.75,446.457 149.66,446.457L124.129,446.457L124.129,445.024L126.163,445.024C128.424,445.024 130.046,444.326 131.03,442.932C131.642,442.028 131.948,440.103 131.948,437.159L131.948,403.22C131.948,399.966 131.562,397.912 130.791,397.06C129.754,395.923 128.211,395.355 126.163,395.355L124.129,395.355L124.129,393.922L147.506,393.922C151.867,393.922 155.364,394.232 157.997,394.852C161.987,395.781 165.032,397.428 167.133,399.791C169.234,402.155 170.284,404.873 170.284,407.947C170.284,410.581 169.46,412.938 167.811,415.017C166.162,417.096 163.729,418.64 160.511,419.647ZM139.607,417.555C140.591,417.736 141.715,417.871 142.978,417.962C144.241,418.052 145.631,418.097 147.147,418.097C151.03,418.097 153.948,417.691 155.903,416.877C157.858,416.063 159.354,414.817 160.391,413.138C161.428,411.459 161.947,409.626 161.947,407.637C161.947,404.563 160.657,401.942 158.077,399.772C155.497,397.602 151.734,396.517 146.788,396.517C144.128,396.517 141.735,396.802 139.607,397.37L139.607,417.555ZM139.607,442.66C142.692,443.358 145.737,443.706 148.742,443.706C153.556,443.706 157.226,442.654 159.753,440.549C162.279,438.444 163.542,435.842 163.542,432.742C163.542,430.702 162.971,428.739 161.827,426.853C160.683,424.968 158.822,423.483 156.242,422.398C153.662,421.313 150.471,420.771 146.668,420.771C145.019,420.771 143.61,420.796 142.439,420.848C141.269,420.9 140.325,420.99 139.607,421.119L139.607,442.66Z"/>
                    <path d="M200.524,441.343C196.775,444.158 194.421,445.786 193.464,446.225C192.027,446.87 190.498,447.193 188.876,447.193C186.349,447.193 184.268,446.354 182.633,444.675C180.997,442.996 180.179,440.788 180.179,438.05C180.179,436.319 180.578,434.821 181.376,433.556C182.467,431.799 184.361,430.146 187.061,428.597C189.76,427.047 194.248,425.161 200.524,422.94L200.524,421.545C200.524,418.007 199.946,415.579 198.789,414.262C197.632,412.945 195.95,412.286 193.743,412.286C192.067,412.286 190.738,412.725 189.754,413.603C188.743,414.481 188.238,415.489 188.238,416.625L188.317,418.872C188.317,420.06 188.005,420.977 187.38,421.623C186.755,422.269 185.937,422.592 184.927,422.592C183.943,422.592 183.138,422.256 182.513,421.584C181.888,420.913 181.576,419.996 181.576,418.833C181.576,416.612 182.746,414.572 185.086,412.712C187.426,410.852 190.711,409.923 194.94,409.923C198.184,409.923 200.844,410.452 202.918,411.511C204.487,412.312 205.644,413.564 206.389,415.269C206.867,416.38 207.107,418.653 207.107,422.088L207.107,434.137C207.107,437.521 207.173,439.593 207.306,440.355C207.439,441.117 207.658,441.627 207.964,441.886C208.27,442.144 208.623,442.273 209.021,442.273C209.447,442.273 209.819,442.183 210.138,442.002C210.697,441.666 211.774,440.723 213.37,439.174L213.37,441.343C210.391,445.217 207.545,447.155 204.833,447.155C203.53,447.155 202.492,446.716 201.721,445.837C200.95,444.959 200.551,443.461 200.524,441.343ZM200.524,438.825L200.524,425.304C196.509,426.853 193.916,427.951 192.745,428.597C190.644,429.733 189.142,430.921 188.238,432.161C187.333,433.401 186.881,434.757 186.881,436.229C186.881,438.089 187.453,439.632 188.597,440.859C189.74,442.086 191.057,442.699 192.546,442.699C194.567,442.699 197.227,441.408 200.524,438.825Z"/>
                    <path d="M239.701,409.923L239.701,422.01L238.384,422.01C237.374,418.214 236.077,415.631 234.495,414.262C232.912,412.893 230.898,412.208 228.451,412.208C226.589,412.208 225.087,412.686 223.943,413.642C222.8,414.598 222.228,415.657 222.228,416.819C222.228,418.265 222.653,419.505 223.504,420.538C224.329,421.597 226.004,422.721 228.531,423.909L234.355,426.66C239.754,429.217 242.453,432.587 242.453,436.771C242.453,440 241.197,442.602 238.683,444.578C236.17,446.554 233.358,447.542 230.246,447.542C228.012,447.542 225.459,447.155 222.587,446.38C221.709,446.121 220.991,445.992 220.433,445.992C219.821,445.992 219.342,446.328 218.996,447L217.68,447L217.68,434.331L218.996,434.331C219.741,437.947 221.164,440.672 223.265,442.505C225.366,444.339 227.72,445.256 230.326,445.256C232.161,445.256 233.657,444.733 234.814,443.687C235.971,442.641 236.549,441.382 236.549,439.91C236.549,438.127 235.904,436.629 234.614,435.415C233.324,434.202 230.751,432.665 226.895,430.805C223.039,428.945 220.512,427.267 219.316,425.768C218.119,424.296 217.52,422.437 217.52,420.189C217.52,417.271 218.551,414.83 220.612,412.867C222.673,410.904 225.339,409.923 228.611,409.923C230.047,409.923 231.789,410.22 233.836,410.814C235.193,411.201 236.097,411.395 236.549,411.395C236.975,411.395 237.307,411.304 237.546,411.124C237.786,410.943 238.065,410.542 238.384,409.923L239.701,409.923Z"/>
                    <path d="M254.024,424.335C253.997,429.604 255.314,433.737 257.973,436.733C260.633,439.729 263.758,441.227 267.348,441.227C269.741,441.227 271.822,440.588 273.591,439.309C275.36,438.031 276.842,435.842 278.039,432.742L279.276,433.517C278.717,437.056 277.095,440.278 274.409,443.183C271.723,446.089 268.358,447.542 264.316,447.542C259.928,447.542 256.171,445.883 253.046,442.564C249.922,439.245 248.359,434.783 248.359,429.178C248.359,423.108 249.961,418.375 253.166,414.979C256.371,411.582 260.393,409.884 265.234,409.884C269.329,409.884 272.693,411.195 275.326,413.816C277.959,416.438 279.276,419.944 279.276,424.335L254.024,424.335ZM254.024,422.088L270.938,422.088C270.805,419.815 270.526,418.214 270.1,417.284C269.436,415.837 268.445,414.701 267.128,413.874C265.812,413.048 264.436,412.635 263,412.635C260.792,412.635 258.818,413.468 257.076,415.133C255.334,416.799 254.316,419.118 254.024,422.088Z"/>
                    <path d="M296.71,391.365L296.71,438.437C296.71,440.659 296.877,442.131 297.209,442.854C297.542,443.577 298.054,444.126 298.745,444.501C299.436,444.875 300.726,445.062 302.615,445.062L302.615,446.457L284.703,446.457L284.703,445.062C286.378,445.062 287.522,444.895 288.134,444.559C288.745,444.223 289.224,443.668 289.57,442.893C289.916,442.118 290.088,440.633 290.088,438.437L290.088,406.203C290.088,402.2 289.995,399.74 289.809,398.823C289.623,397.906 289.324,397.279 288.912,396.944C288.499,396.608 287.974,396.44 287.336,396.44C286.644,396.44 285.767,396.647 284.703,397.06L284.025,395.704L294.915,391.365L296.71,391.365Z"/>
                </g>
                <g transform="matrix(1,0,0,1,513.038,102.173)">
                    <path d="M0,124.808C0,119.24 -3.609,116.457 -10.826,116.457C-13.095,116.457 -15.311,116.714 -17.476,117.23C-16.239,126.664 -12.527,131.381 -6.341,131.381C-4.589,131.381 -3.093,130.724 -1.856,129.409C-0.619,128.094 0,126.56 0,124.808M4.408,122.488C4.408,125.891 3.506,128.674 1.701,130.84C-0.259,133.159 -2.888,134.319 -6.186,134.319C-15.156,134.319 -21.935,129.575 -26.523,120.091C-28.998,122.102 -31.833,126.844 -35.03,134.319L-39.824,134.319C-38.02,125.607 -34.385,118.776 -28.921,113.827C-30.158,109.446 -30.776,104.935 -30.776,100.295L-30.776,20.106C-30.776,9.022 -31.524,2.862 -33.019,1.625C-33.844,0.956 -34.875,0.619 -36.112,0.619C-37.454,0.619 -39.155,1.033 -41.216,1.857L-42.53,-0.85L-21.42,-9.511L-17.94,-9.511L-17.94,108.028C-15.981,107.564 -13.869,107.332 -11.599,107.332C-6.805,107.332 -2.938,108.672 0,111.353C2.938,114.033 4.408,117.744 4.408,122.488" style="fill-rule:nonzero;"/>
                </g>
                <g transform="matrix(1,0,0,1,561.399,144.819)">
                    <path d="M0,42.759L0,13.62C-17.103,21.855 -26.763,25.181 -26.763,38.008C-26.763,44.501 -21.854,49.885 -14.569,49.885C-10.768,49.885 -5.226,46.56 0,42.759M-42.758,42.759C-42.758,24.071 -26.446,20.904 0,9.661L0,-3.008C0,-9.185 -3.959,-13.935 -12.352,-13.935C-16.944,-13.935 -23.438,-10.927 -23.438,-4.75C-23.438,-2.217 -22.962,-1.266 -22.962,1.109C-22.962,5.068 -25.021,9.344 -31.198,9.344C-36.898,9.344 -39.591,5.86 -39.591,1.109C-39.591,-9.818 -26.129,-17.261 -9.818,-17.261C0.793,-17.261 15.204,-15.36 15.204,-0.158L15.204,45.293C15.204,50.678 18.054,51.786 21.221,51.786C23.438,51.786 26.13,49.727 28.189,46.084L29.931,47.035C26.605,54.32 20.746,60.02 12.828,60.02C3.326,60.02 0,54.794 0,47.035C-8.076,53.686 -14.728,60.02 -24.863,60.02C-34.207,60.02 -42.758,55.428 -42.758,42.759" style="fill-rule:nonzero;"/>
                </g>
                <g transform="matrix(1,0,0,1,654.465,126.632)">
                    <path d="M0,41.177C0,22.963 -9.344,11.403 -21.381,11.403C-28.35,11.403 -32.945,15.201 -37.852,19.796L-37.852,64.617C-33.261,70.162 -26.607,73.487 -20.431,73.487C-9.821,73.487 0,61.45 0,41.177M-52.899,68.419L-52.899,-17.267C-52.899,-27.719 -56.543,-28.827 -64.461,-26.134L-64.461,-28.035L-37.852,-37.063L-37.852,15.043C-31.202,7.758 -25.025,1.266 -13.938,1.266C4.752,1.266 17.106,14.57 17.106,36.109C17.106,58.917 -0.635,78.24 -23.598,78.24C-35.004,78.24 -44.348,74.596 -52.899,68.419" style="fill-rule:nonzero;"/>
                </g>
                <g transform="matrix(1,0,0,1,636.285,229.099)">
                    <path d="M0,-17.167C2.423,-17.167 4.458,-16.329 6.109,-14.654C7.759,-12.979 8.583,-10.955 8.583,-8.584C8.583,-6.213 7.745,-4.189 6.07,-2.513C4.395,-0.839 2.37,0 0,0C-2.371,0 -4.396,-0.839 -6.07,-2.513C-7.746,-4.189 -8.583,-6.213 -8.583,-8.584C-8.583,-11.008 -7.746,-13.043 -6.07,-14.692C-4.396,-16.343 -2.371,-17.167 0,-17.167" style="fill-rule:nonzero;"/>
                </g>
            </g>
        </g>
    </g>
</svg>
